REM DIRINDEX 1\2\4,1\2\5,1\2\6,1\3\7,1\3\8,1\3\9,1\3\10
REM DIRNAME cjc057,folder01,folder02,folder03,folder04,folder05,folder06,folder07,folder08,folder09
TITLE ""
FILE "a_044.mp3" MP3
  TRACK 01 AUDIO
    TITLE "0:"
    INDEX 01 00:00:00
  TRACK 02 AUDIO
    TITLE "4:cjc057_00525"
    INDEX 01 00:00:11
  TRACK 03 AUDIO
    TITLE "0:"
    INDEX 01 00:01:42
  TRACK 04 AUDIO
    TITLE "5:cjc057_00526"
    INDEX 01 00:01:69
  TRACK 05 AUDIO
    TITLE "0:"
    INDEX 01 00:04:31
  TRACK 06 AUDIO
    TITLE "4:cjc057_00527"
    INDEX 01 00:05:36
  TRACK 07 AUDIO
    TITLE "0:"
    INDEX 01 00:06:53
  TRACK 08 AUDIO
    TITLE "5:cjc057_00528"
    INDEX 01 00:07:07
  TRACK 09 AUDIO
    TITLE "0:"
    INDEX 01 00:08:19
  TRACK 10 AUDIO
    TITLE "4:cjc057_00529"
    INDEX 01 00:09:22
  TRACK 11 AUDIO
    TITLE "0:"
    INDEX 01 00:10:41
  TRACK 12 AUDIO
    TITLE "5:cjc057_00530"
    INDEX 01 00:10:68
  TRACK 13 AUDIO
    TITLE "0:"
    INDEX 01 00:11:74
  TRACK 14 AUDIO
    TITLE "4:cjc057_00531"
    INDEX 01 00:13:04
  TRACK 15 AUDIO
    TITLE "0:"
    INDEX 01 00:14:17
  TRACK 16 AUDIO
    TITLE "5:cjc057_00532"
    INDEX 01 00:14:47
  TRACK 17 AUDIO
    TITLE "0:"
    INDEX 01 00:17:02
  TRACK 18 AUDIO
    TITLE "4:cjc057_00533"
    INDEX 01 00:18:05
  TRACK 19 AUDIO
    TITLE "0:"
    INDEX 01 00:19:32
  TRACK 20 AUDIO
    TITLE "5:cjc057_00534"
    INDEX 01 00:19:60
  TRACK 21 AUDIO
    TITLE "0:"
    INDEX 01 00:21:29
  TRACK 22 AUDIO
    TITLE "4:cjc057_00535"
    INDEX 01 00:22:29
  TRACK 23 AUDIO
    TITLE "0:"
    INDEX 01 00:23:67
  TRACK 24 AUDIO
    TITLE "5:cjc057_00536"
    INDEX 01 00:24:20
  TRACK 25 AUDIO
    TITLE "0:"
    INDEX 01 00:27:02
  TRACK 26 AUDIO
    TITLE "4:cjc057_00537"
    INDEX 01 00:28:04
  TRACK 27 AUDIO
    TITLE "0:"
    INDEX 01 00:29:44
  TRACK 28 AUDIO
    TITLE "5:cjc057_00538"
    INDEX 01 00:29:74
  TRACK 29 AUDIO
    TITLE "0:"
    INDEX 01 00:31:35
  TRACK 30 AUDIO
    TITLE "4:cjc057_00539"
    INDEX 01 00:32:37
  TRACK 31 AUDIO
    TITLE "0:"
    INDEX 01 00:34:08
  TRACK 32 AUDIO
    TITLE "5:cjc057_00540"
    INDEX 01 00:34:36
  TRACK 33 AUDIO
    TITLE "0:"
    INDEX 01 00:35:66
  TRACK 34 AUDIO
    TITLE "4:cjc057_00541"
    INDEX 01 00:36:72
  TRACK 35 AUDIO
    TITLE "0:"
    INDEX 01 00:38:22
  TRACK 36 AUDIO
    TITLE "5:cjc057_00542"
    INDEX 01 00:38:53
  TRACK 37 AUDIO
    TITLE "0:"
    INDEX 01 00:40:44
  TRACK 38 AUDIO
    TITLE "4:cjc057_00543"
    INDEX 01 00:41:47
  TRACK 39 AUDIO
    TITLE "0:"
    INDEX 01 00:42:72
  TRACK 40 AUDIO
    TITLE "5:cjc057_00544"
    INDEX 01 00:43:27
  TRACK 41 AUDIO
    TITLE "0:"
    INDEX 01 00:47:09
  TRACK 42 AUDIO
    TITLE "4:cjc057_00545"
    INDEX 01 00:48:10
  TRACK 43 AUDIO
    TITLE "0:"
    INDEX 01 00:49:21
  TRACK 44 AUDIO
    TITLE "5:cjc057_00546"
    INDEX 01 00:49:51
  TRACK 45 AUDIO
    TITLE "0:"
    INDEX 01 00:52:30
  TRACK 46 AUDIO
    TITLE "4:cjc057_00547"
    INDEX 01 00:53:35
  TRACK 47 AUDIO
    TITLE "0:"
    INDEX 01 00:54:60
  TRACK 48 AUDIO
    TITLE "5:cjc057_00548"
    INDEX 01 00:55:16
  TRACK 49 AUDIO
    TITLE "0:"
    INDEX 01 00:56:59
  TRACK 50 AUDIO
    TITLE "4:cjc057_00549"
    INDEX 01 00:57:64
  TRACK 51 AUDIO
    TITLE "0:"
    INDEX 01 00:59:10
  TRACK 52 AUDIO
    TITLE "5:cjc057_00550"
    INDEX 01 00:59:39
  TRACK 53 AUDIO
    TITLE "0:"
    INDEX 01 01:01:21
  TRACK 54 AUDIO
    TITLE "4:cjc057_00551"
    INDEX 01 01:02:26
  TRACK 55 AUDIO
    TITLE "0:"
    INDEX 01 01:03:59
  TRACK 56 AUDIO
    TITLE "5:cjc057_00552"
    INDEX 01 01:04:13
  TRACK 57 AUDIO
    TITLE "0:"
    INDEX 01 01:05:50
  TRACK 58 AUDIO
    TITLE "4:cjc057_00553"
    INDEX 01 01:06:53
  TRACK 59 AUDIO
    TITLE "0:"
    INDEX 01 01:07:66
  TRACK 60 AUDIO
    TITLE "5:cjc057_00554"
    INDEX 01 01:08:21
  TRACK 61 AUDIO
    TITLE "0:"
    INDEX 01 01:10:37
